<svg fill="none" height="590" viewBox="0 0 731 590" width="731" xmlns="http://www.w3.org/2000/svg"><path d="m375.702.873209c-18.314-1.224391-28.679-1.102574-47 0-5.083.305871-7.931.524281-13 1.000001-11.768 1.10426-18.357 1.96648-30 4-11.017 1.92401-17.164 3.239-28 5.99999-11.853 3.0199-18.444 4.9933-30.001 9-11.1 3.8484-17.28 6.193-28 11-9.561 4.2876-14.827 6.9328-24 12-7.972 4.4045-12.352 7.0527-20 12-6.366 4.1185-9.856 6.5552-16 11-6.771 4.8991-10.713 7.4928-16.999 13-6.232 5.4589-26.805 26.4258-41.228 45.6268-12.6013 16.776-24.1027 36.554-28.7725 45.373-4.2505 8.028-6.3394 12.687-10 21-4.2377 9.624-6.4962 15.086-10 25-3.5399 10.016-5.1757 15.759-8 26-3.0974 11.231-4.6497 17.589-7 29-2.9531 14.337-6 37-6 37s-2.83195 24.345-3.99999 40c-1.19272 15.986-1.34935 24.983-2.00001 41-2.78978 68.677-10.72689 147.127-1 176 1.96843 5.843 4.1004 9.104 8.7725 13.127 4.944 4.257 10.5243 6.201 15.2275 6.873 28.6084 4.087 45.6465 5.588 73.9995 0 3.533-.696 5.759-.432 9-2 3.737-1.808 5.566-3.637 8-7 2.256-3.115 2.646-5.4 4.001-9 5.27-14.009 2.185-23.299 4.999-38l.204-1.063c1.531-8.004 2.453-12.825 4.796-20.937 1.714-5.932 2.722-9.261 5-15 2.385-6.008 3.921-9.316 7-15 2.84-5.241 4.525-8.156 8-13 3.557-4.956 5.746-7.628 10-12 3.664-3.765 5.919-5.692 10-9l.107-.086c4.06-3.291 6.392-5.181 10.893-7.914 4.479-2.719 7.188-3.928 12-6 5.333-2.295 8.398-3.478 14-5 6.506-1.766 10.289-2.369 17-3 7.777-.731 12.217-.648 20 0 5.504.459 8.613.786 14.001 2 5.181 1.168 8.04 2.097 13 4 4.405 1.691 6.868 2.721 11 5 5.406 2.983 8.298 4.998 13 9 3.608 3.072 5.475 5.125 8.54 8.496l.46.504c3.735 4.105 5.84 6.437 9 11 4.678 6.757 6.58 11.134 9.802 18.545l.198.455c3.299 7.589 4.78 12.028 7 20 2.772 9.961 3.334 15.796 5 26 2.723 16.685-.987 27.19 5 43 1.053 2.782 1.343 4.53 3 7 2.312 3.448 4.266 5.185 8 7 3.581 1.742 6.076 1.32 10 2 26.164 4.539 41.525 2.07 68 0 4.3-.336 6.807.016 11-1 2.4-.581 3.818-.841 6-2 2.693-1.431 4.204-2.534 6-5 1.963-2.697 2.25-4.748 3-8 8.273-35.873-2.765-59.22 0-97 .887-12.13 1.092-18.987 3-31 1.249-7.866 1.988-12.293 4-20l.121-.465c1.578-6.048 2.507-9.607 4.879-15.535 2.595-6.486 3.935-10.318 8-16 2.736-3.824 8-9 8-9s4.604-4.07 8-6c3.656-2.078 5.878-3.161 10-4 4.592-.934 7.475-1.22 11.999 0 2.031.548 3.128 1.043 5 2 3.478 1.777 5.111 3.373 8 6 5.78 5.254 12 16 12 16s7.211 13.466 12 22c3.082 5.492 4.596 8.703 8 14 2.578 4.01 4.002 6.295 7 10 4.517 5.581 7.646 8.217 13 13 4.14 3.698 6.394 5.904 11 9 4.786 3.216 7.756 4.603 13 7 4.948 2.261 7.789 3.444 13 5 5.358 1.6 8.458 2.263 14 3 9.291 1.237 14.712 1.251 24 0 6.76-.91 10.584-1.687 17-4 6.572-2.369 10.072-4.304 16-8 4.508-2.81 7.007-4.498 11-8 4.781-4.191 7.101-6.979 11-12 3.455-4.448 5.305-7.054 8-12 2.847-5.223 4.126-8.355 6-14 2.27-6.834 3.381-10.826 4-18l.014-.161c.395-4.57.627-7.251-.014-11.839-.275-1.972-.448-3.086-1-5-.823-2.858-1.441-4.467-3-7-1.31-2.13-2.172-3.293-4-5-2.058-1.922-3.361-3.016-6-4-4.025-1.501-6.972-1.493-11 0-2.135.792-3.315 1.468-5 3-2.068 1.881-2.793 3.428-3.974 5.945l-.026.055c-2.344 5.001-.635 8.648-2 14l-.07.276c-.871 3.422-1.391 5.46-2.93 8.724-1.57 3.333-2.592 5.211-5 8-2.352 2.726-3.931 4.117-7 6-3.896 2.391-6.481 3.311-11 4-3.474.53-5.534.589-9 0-1.587-.269-2.463-.518-4-1-4.166-1.306-6.611-2.247-10-5-2.794-2.27-3.914-4.065-6-7-3.472-4.885-4.743-8.17-6.872-13.67l-.128-.33c-2.906-7.508-3.506-12.089-5-20-2.039-10.806-2.086-17.041-3-28-1.331-15.975-2.047-24.969-2-41 .032-10.551.747-16.451 1-27 .47-19.52 1.472-30.529 0-50-.77-10.192-1.355-15.912-3-26-1.54-9.449-2.573-14.738-5-24-3.129-11.946-5.238-18.605-10-30-2.829-6.77-4.581-10.508-8-17-4.244-8.059-6.887-12.461-12-20-4.383-6.464-6.982-10.0139-12-15.9998-4.438-5.2951-7.114-8.1145-12-13-4.885-4.8854-7.77-7.4843-13-12-4.2-3.6277-6.624-5.5848-11-9-5.726-4.4697-8.977-6.9386-15-11-6.83-4.6059-10.778-7.0348-17.999-11-8.728-4.7923-13.886-6.9929-23-11-9.626-4.2319-15.025-6.6748-25-10-9.855-3.2847-15.612-4.6095-25.628-6.91439l-.372-.0856c-10.077-2.31878-15.776-3.45848-26-5-10.875-1.63956-17.028-2.2664-28-3.000001z" fill="#1b1b1b"/></svg>